<?xml version="1.0" standalone="no"?>
<!DOCTYPE svg PUBLIC "-//W3C//DTD SVG 20010904//EN"
 "http://www.w3.org/TR/2001/REC-SVG-20010904/DTD/svg10.dtd">
<svg version="1.0" xmlns="http://www.w3.org/2000/svg"
 width="200.000000pt" height="200.000000pt" viewBox="0 0 200.000000 200.000000"
 preserveAspectRatio="xMidYMid meet">
<metadata>
Created by potrace 1.10, written by Peter Selinger 2001-2011
</metadata>
<g transform="translate(0.000000,200.000000) scale(0.100000,-0.100000)"
fill="#000000" stroke="none">
<path d="M1246 1781 c-3 -5 37 -7 94 -4 63 3 100 2 100 -5 0 -5 -13 -12 -30
-15 -16 -4 -30 -12 -30 -18 0 -8 4 -8 15 1 8 7 22 10 30 6 8 -3 15 -1 15 4 0
12 22 9 32 -5 5 -6 8 -5 8 2 0 9 13 11 43 8 32 -3 26 0 -28 15 -73 20 -239 27
-249 11z"/>
<path d="M1160 1753 c-46 -17 -151 -83 -131 -83 6 0 28 11 49 25 20 13 52 28
70 31 18 4 30 9 27 13 -4 3 9 11 27 17 18 7 26 12 18 12 -8 0 -35 -7 -60 -15z"/>
<path d="M1272 1700 c-1 -28 3 -40 14 -40 17 0 19 16 2 23 -8 3 -9 6 -2 6 6 1
9 12 6 26 -7 39 -20 30 -20 -15z"/>
<path d="M1491 1700 c-1 -14 -4 -36 -7 -50 l-6 -25 21 25 c11 14 20 34 20 45
0 20 0 20 -8 0 -8 -19 -9 -18 -13 5 l-5 25 -2 -25z"/>
<path d="M1570 1695 c0 -8 -4 -15 -10 -15 -14 0 -12 -13 6 -36 15 -18 15 -18
9 9 -3 15 -1 27 5 27 5 0 10 7 10 15 0 8 -4 15 -10 15 -5 0 -10 -7 -10 -15z"/>
<path d="M1170 1675 c0 -8 -7 -15 -15 -15 -8 0 -15 -7 -15 -15 0 -17 16 -20
25 -5 5 8 11 7 21 -1 11 -9 14 -8 14 4 0 9 -5 19 -10 22 -6 4 -8 11 -5 16 4 5
1 9 -4 9 -6 0 -11 -7 -11 -15z"/>
<path d="M1654 1674 c-18 -14 -18 -15 -1 -10 20 6 71 -27 60 -38 -4 -4 2 -9
12 -12 28 -7 108 -132 108 -167 0 -17 3 -23 8 -15 4 7 9 -7 11 -32 l4 -45 8
40 c6 26 5 40 -2 43 -6 2 -16 20 -23 40 -18 56 -76 134 -145 194 -19 16 -22
16 -40 2z"/>
<path d="M978 1635 c-23 -30 -23 -30 4 -32 18 -2 19 0 8 7 -12 7 -12 12 -2 22
10 10 14 10 21 0 6 -10 10 -10 21 3 11 13 10 14 -5 9 -13 -5 -16 -4 -11 4 14
23 -19 11 -36 -13z"/>
<path d="M1368 1629 c-9 -14 -21 -20 -33 -17 -18 5 -18 6 5 16 l25 12 -30 -3
c-22 -1 -30 -7 -29 -19 1 -13 -6 -18 -27 -18 -16 0 -29 5 -29 10 0 6 8 10 18
10 15 1 15 2 -2 11 -14 9 -20 8 -27 -2 -12 -20 -11 -29 4 -30 6 0 3 -5 -8 -10
-17 -8 -17 -9 5 -4 14 2 51 7 82 11 34 4 56 11 55 18 -1 6 4 10 11 9 14 -3 17
13 3 21 -5 3 -15 -4 -23 -15z"/>
<path d="M1440 1620 c0 -5 -10 -10 -22 -10 -19 0 -20 -2 -8 -10 20 -13 67 -13
75 0 4 7 -2 9 -19 4 -21 -5 -25 -3 -20 10 3 9 3 16 0 16 -3 0 -6 -4 -6 -10z"/>
<path d="M1618 1613 c-10 -2 -18 -8 -18 -13 0 -12 29 -20 35 -10 4 6 16 10 28
10 18 0 19 2 7 10 -16 10 -24 11 -52 3z"/>
<path d="M1160 1584 c-21 -12 -22 -14 -5 -12 11 1 26 -1 33 -5 8 -6 12 -2 12
12 0 24 -5 25 -40 5z"/>
<path d="M1507 1583 c-3 -5 17 -24 44 -42 27 -19 49 -40 49 -46 0 -7 7 -15 14
-18 8 -3 24 -25 35 -49 l21 -43 -3 35 c-1 24 -11 43 -29 60 -32 28 -35 40 -11
40 13 0 14 3 5 12 -9 9 -15 9 -24 0 -9 -9 -20 -5 -47 15 -20 15 -39 31 -42 36
-4 5 -9 5 -12 0z"/>
<path d="M1001 1548 c0 -13 4 -31 8 -41 7 -18 8 -18 21 -1 12 13 12 18 3 21
-7 3 -13 11 -13 18 0 8 -4 17 -10 20 -6 3 -10 -4 -9 -17z"/>
<path d="M1121 1537 c-1 -29 6 -28 49 3 12 9 9 10 -12 6 -16 -4 -28 -1 -31 7
-3 6 -6 -1 -6 -16z"/>
<path d="M1296 1529 c-9 -45 -7 -99 2 -99 5 0 7 20 5 45 -3 29 -1 45 6 45 13
0 15 26 2 34 -5 3 -11 -8 -15 -25z"/>
<path d="M1090 1535 c10 -13 9 -15 -10 -15 -20 0 -22 -4 -17 -36 7 -40 13 -51
24 -40 4 3 1 12 -5 18 -15 15 -16 48 -2 48 6 0 10 -8 11 -17 0 -10 5 -5 9 11
10 31 6 46 -12 46 -7 0 -6 -6 2 -15z"/>
<path d="M1330 1547 c3 -3 24 -7 48 -11 59 -8 64 -13 60 -57 -2 -22 0 -39 5
-39 4 0 7 24 5 53 l-3 52 -60 3 c-33 2 -57 1 -55 -1z"/>
<path d="M1691 1524 c-6 -13 -15 -24 -21 -24 -6 0 -8 -5 -5 -11 5 -7 15 -4 29
9 11 11 29 22 38 24 15 2 14 5 -6 14 -21 10 -25 8 -35 -12z"/>
<path d="M1331 1503 c1 -10 5 -29 9 -43 7 -21 8 -19 9 18 1 23 -3 42 -9 42 -5
0 -10 -8 -9 -17z"/>
<path d="M1392 1490 c-3 -52 8 -80 29 -80 25 0 24 16 0 23 -15 4 -21 16 -24
48 -3 39 -4 40 -5 9z"/>
<path d="M1787 1484 c4 -35 2 -44 -18 -58 -13 -9 -31 -16 -41 -16 -10 0 -18
-4 -18 -8 0 -18 13 -20 36 -5 13 8 34 13 45 10 16 -4 19 -3 11 5 -7 7 -7 19
-1 35 6 17 5 32 -5 51 -14 27 -14 26 -9 -14z"/>
<path d="M867 1465 c-10 -24 -17 -52 -14 -62 3 -13 6 -10 12 12 4 17 14 41 22
54 8 13 11 27 6 32 -4 4 -16 -12 -26 -36z"/>
<path d="M934 1465 c11 -8 24 -15 29 -15 4 0 5 -4 2 -10 -8 -13 15 -13 35 0
13 8 13 10 -1 10 -9 0 -22 7 -29 15 -7 8 -22 15 -34 15 -21 -1 -21 -1 -2 -15z"/>
<path d="M1025 1461 c-3 -6 -1 -11 5 -11 6 0 8 -5 4 -12 -4 -7 -3 -8 4 -4 15
9 15 5 2 -31 -9 -26 -9 -27 5 -9 18 24 18 36 1 59 -9 12 -16 14 -21 8z"/>
<path d="M1116 1371 c-9 -14 -16 -12 79 -16 54 -3 75 -1 63 6 -27 15 -134 23
-142 10z"/>
<path d="M1876 1303 c5 -98 -18 -192 -42 -172 -17 14 -18 5 -3 -19 14 -22 -9
-79 -29 -75 -7 2 -12 -4 -12 -12 0 -8 -4 -15 -10 -15 -5 0 -10 -7 -10 -15 0
-8 5 -15 10 -15 6 0 10 5 10 11 0 5 4 7 10 4 5 -3 12 6 16 20 3 14 10 25 14
25 5 0 11 18 15 40 4 22 11 40 15 40 19 0 31 106 21 186 l-10 79 5 -82z"/>
<path d="M1456 1341 c5 -6 36 -11 69 -13 54 -3 60 -5 63 -25 5 -31 22 -29 22
2 0 17 -7 28 -22 34 -33 12 -144 13 -132 2z"/>
<path d="M1680 1340 c0 -27 12 -60 21 -60 5 0 6 12 3 28 -8 31 -24 54 -24 32z"/>
<path d="M814 1328 c-199 -22 -382 -197 -401 -383 l-6 -55 -118 0 -119 0 0
-34 c0 -51 25 -174 49 -237 118 -313 472 -485 839 -410 87 18 241 82 274 114
7 7 25 20 41 30 l27 18 -87 83 c-86 82 -89 84 -108 67 -56 -49 -166 -93 -263
-105 -42 -5 -54 -4 -58 9 -4 9 -19 15 -39 15 -48 0 -153 35 -206 68 -148 94
-228 265 -201 429 29 174 158 311 339 358 91 24 103 21 103 -20 0 -32 3 -35
28 -35 44 0 132 -29 183 -60 l47 -28 33 34 c18 18 31 36 28 38 -18 18 -131 79
-164 88 -63 17 -154 24 -221 16z m193 -37 c10 -5 45 -20 78 -33 59 -24 88 -59
46 -55 -11 0 -18 4 -15 8 4 6 -6 9 -83 25 -18 3 -31 10 -28 14 3 5 -14 11 -37
15 -39 7 -68 24 -68 41 0 9 84 -3 107 -15z m-596 -489 c21 -105 65 -188 135
-256 27 -26 31 -35 21 -46 -10 -12 -9 -12 5 -1 14 10 23 9 53 -12 20 -14 33
-27 28 -29 -4 -3 -3 -3 4 -2 6 2 35 -6 64 -17 30 -10 58 -18 64 -17 18 3 79
-14 103 -30 20 -13 33 -13 100 -2 42 7 83 17 89 23 7 5 20 7 28 3 9 -3 14 -2
11 3 -3 4 7 14 22 22 15 7 38 21 52 30 14 9 31 14 39 11 17 -6 111 -99 111
-110 0 -10 -59 -49 -92 -61 -16 -6 -28 -15 -28 -21 0 -6 -5 -8 -11 -4 -6 3
-15 1 -19 -6 -4 -7 -20 -13 -36 -15 -16 -1 -36 -5 -44 -7 -8 -3 -31 -10 -51
-17 -50 -16 -279 -14 -348 3 -31 8 -69 17 -84 20 -15 4 -25 11 -22 16 3 6 -3
10 -14 10 -22 0 -84 32 -113 57 -9 8 -22 12 -29 7 -9 -5 -10 -2 -6 10 5 12 3
16 -5 14 -12 -4 -39 24 -71 75 -10 15 -22 25 -26 23 -11 -7 -33 43 -25 57 4 7
4 9 -1 5 -12 -11 -40 31 -61 92 -10 30 -21 57 -24 60 -6 6 -11 35 -13 78 0 17
-5 32 -9 32 -15 0 -8 39 8 48 9 5 54 10 100 10 l83 1 12 -57z"/>
<path d="M1460 1289 c0 -15 -3 -41 -6 -58 -5 -24 -3 -31 10 -31 12 0 16 10 16
43 0 23 -5 49 -10 57 -8 12 -10 9 -10 -11z"/>
<path d="M1557 1261 c3 -11 0 -28 -6 -38 -10 -17 -10 -17 -11 0 0 9 -4 17 -9
17 -6 0 -9 -9 -8 -20 2 -27 33 -26 41 3 8 32 7 57 -3 57 -5 0 -7 -9 -4 -19z"/>
<path d="M835 1215 c3 -22 11 -60 20 -85 l15 -45 -6 55 c-3 30 -9 59 -14 65
-4 5 -10 19 -14 30 -3 11 -3 2 -1 -20z"/>
<path d="M1584 1208 c1 -22 -3 -23 -56 -21 -32 1 -58 -2 -58 -8 0 -5 12 -9 28
-9 15 0 44 -3 65 -6 l37 -7 0 37 c0 20 -4 36 -8 36 -5 0 -8 -10 -8 -22z"/>
<path d="M1693 1147 c-8 -16 -8 -28 -1 -38 8 -11 9 -10 4 4 -3 11 0 20 9 23 8
4 15 12 15 20 0 22 -16 16 -27 -9z"/>
<path d="M964 1145 c-10 -8 -27 -15 -36 -15 -11 0 -15 -5 -12 -14 4 -12 10
-12 34 1 30 14 46 31 38 39 -3 2 -13 -3 -24 -11z"/>
<path d="M1040 1146 c0 -8 -10 -17 -22 -19 l-23 -4 23 -2 c14 -1 26 -10 33
-28 8 -21 12 -24 22 -14 9 10 8 16 -8 29 -11 9 -19 25 -17 35 2 9 1 17 -2 17
-3 0 -6 -6 -6 -14z"/>
<path d="M1270 1101 c0 -33 -2 -65 -5 -73 -6 -17 11 -45 22 -35 4 5 2 11 -4
15 -7 5 -9 19 -5 40 l7 32 25 -23 c20 -19 60 -33 60 -22 0 1 -18 15 -40 30
-41 29 -52 59 -28 83 9 9 7 12 -10 12 -20 0 -22 -5 -22 -59z"/>
<path d="M1405 1096 c0 -79 -15 -100 -63 -91 -23 4 -32 3 -27 -4 8 -15 66 -13
86 2 17 13 18 16 23 100 3 39 1 57 -7 57 -8 0 -12 -22 -12 -64z"/>
<path d="M1730 1108 c-18 -8 -21 -12 -10 -16 8 -3 21 -11 28 -19 15 -15 42
-18 42 -4 0 5 -9 11 -20 14 -13 3 -18 10 -14 21 7 18 7 18 -26 4z"/>
<path d="M1601 1049 c-1 -15 -69 -70 -103 -82 -11 -4 -18 -16 -17 -29 1 -22 1
-22 7 -2 6 17 14 21 37 18 19 -2 25 0 16 5 -10 7 -7 13 15 27 16 10 35 24 42
33 10 13 12 12 12 -7 0 -24 14 -29 26 -10 4 6 0 16 -8 22 -8 6 -17 18 -21 26
-5 13 -6 13 -6 -1z"/>
<path d="M1683 1036 c-8 -10 -9 -16 0 -25 14 -14 37 -14 37 -1 0 6 -3 9 -7 9
-20 -3 -24 2 -13 16 15 19 -1 19 -17 1z"/>
<path d="M892 980 c-43 -40 -18 -110 40 -110 28 0 56 24 39 34 -5 4 -12 2 -16
-4 -11 -17 -44 -11 -55 10 -18 33 5 64 41 56 31 -6 37 2 17 22 -18 18 -41 15
-66 -8z"/>
<path d="M990 935 c0 -63 1 -65 25 -65 14 0 25 5 25 10 0 6 -4 10 -10 10 -5 0
-10 25 -10 55 0 42 -3 55 -15 55 -12 0 -15 -14 -15 -65z"/>
<path d="M1560 966 c0 -2 16 -14 36 -27 26 -15 34 -27 31 -40 -7 -25 5 -24 20
1 11 17 8 22 -31 45 -41 24 -56 30 -56 21z"/>
<path d="M1052 913 c2 -27 7 -48 12 -48 4 0 9 21 10 48 1 34 -2 47 -12 47 -9
0 -12 -13 -10 -47z"/>
<path d="M1098 913 c-2 -28 1 -43 9 -43 6 0 13 15 15 32 2 22 9 34 21 36 14 3
17 -4 17 -32 0 -20 5 -36 10 -36 6 0 10 20 10 45 l0 45 -39 -2 c-39 -1 -39 -2
-43 -45z"/>
<path d="M1203 915 c4 -60 21 -62 25 -2 2 37 0 47 -13 47 -12 0 -15 -10 -12
-45z"/>
<path d="M1250 934 c-15 -39 4 -66 42 -62 40 4 50 28 11 25 -22 -2 -28 2 -28
18 0 14 7 20 25 21 41 2 46 4 30 14 -8 5 -27 10 -43 10 -20 0 -30 -7 -37 -26z"/>
<path d="M1350 949 c0 -7 9 -9 24 -5 36 9 40 -7 4 -18 -56 -19 -45 -56 18 -59
l39 -2 -4 40 c-1 22 -5 43 -8 48 -7 11 -73 8 -73 -4z"/>
<path d="M1731 923 c-17 -20 -29 -39 -26 -41 5 -6 27 16 49 51 26 39 13 33
-23 -10z"/>
<path d="M888 725 c-19 -47 -23 -65 -13 -65 7 0 15 7 19 15 3 8 17 15 31 15
16 0 25 -6 25 -15 0 -8 7 -15 15 -15 8 0 15 1 15 3 0 14 -50 122 -57 124 -5 2
-21 -26 -35 -62z"/>
<path d="M999 783 c0 -5 -2 -34 -2 -65 -2 -46 1 -58 13 -58 12 0 15 9 12 38
-3 35 -2 36 12 18 9 -11 16 -23 16 -28 0 -19 21 -6 32 20 l12 27 4 -37 c2 -25
8 -38 18 -38 12 0 14 12 12 62 -4 73 -20 85 -45 34 -9 -20 -20 -36 -23 -36 -3
0 -14 16 -23 35 -15 32 -36 47 -38 28z"/>
<path d="M1150 726 l0 -64 45 -4 c31 -2 45 1 45 9 0 8 -13 13 -30 13 -20 0
-30 5 -30 15 0 9 9 15 25 15 14 0 25 6 25 14 0 9 -8 12 -25 8 -18 -3 -25 0
-25 12 0 11 9 16 30 16 20 0 30 5 30 15 0 11 -12 15 -45 15 l-45 0 0 -64z"/>
<path d="M1260 725 l0 -65 45 0 c49 0 67 18 48 49 -7 11 -7 21 0 33 17 26 -9
48 -54 48 l-39 0 0 -65z m68 22 c3 -12 -4 -17 -22 -17 -27 0 -37 24 -13 33 19
8 32 2 35 -16z m12 -52 c0 -10 -10 -15 -30 -15 -20 0 -30 5 -30 15 0 10 10 15
30 15 20 0 30 -5 30 -15z"/>
<path d="M1380 725 c0 -51 3 -65 15 -65 8 0 15 9 15 20 0 15 7 20 25 20 17 0
29 8 37 25 15 34 -12 65 -59 65 l-33 0 0 -65z m70 15 c0 -13 -7 -20 -20 -20
-13 0 -20 7 -20 20 0 13 7 20 20 20 13 0 20 -7 20 -20z"/>
<path d="M1500 788 c-1 -2 -2 -31 -4 -65 l-3 -63 42 0 c47 0 72 19 60 47 -5
10 -7 29 -6 42 2 13 -3 28 -11 32 -11 8 -77 13 -78 7z m65 -38 c0 -8 -10 -16
-22 -18 -18 -3 -23 2 -23 18 0 16 5 21 23 18 12 -2 22 -10 22 -18z m5 -55 c0
-9 -9 -15 -25 -15 -16 0 -25 6 -25 15 0 9 9 15 25 15 16 0 25 -6 25 -15z"/>
<path d="M1628 725 c-19 -47 -23 -65 -13 -65 7 0 15 7 19 15 3 8 17 15 31 15
16 0 25 -6 25 -15 0 -8 7 -15 15 -15 8 0 15 1 15 3 0 15 -48 121 -56 124 -6 2
-22 -26 -36 -62z"/>
</g>
</svg>
