<?xml version="1.0" standalone="no"?>
<!DOCTYPE svg PUBLIC "-//W3C//DTD SVG 20010904//EN"
 "http://www.w3.org/TR/2001/REC-SVG-20010904/DTD/svg10.dtd">
<svg version="1.0" xmlns="http://www.w3.org/2000/svg"
 width="300.000000pt" height="145.000000pt" viewBox="0 0 300.000000 145.000000"
 preserveAspectRatio="xMidYMid meet">
<metadata>
Created by potrace 1.10, written by Peter Selinger 2001-2011
</metadata>
<g transform="translate(0.000000,145.000000) scale(0.100000,-0.100000)"
fill="#000000" stroke="none">
<path d="M415 1071 c-94 -23 -194 -116 -220 -204 -34 -114 -11 -226 62 -307
63 -70 125 -100 205 -100 91 1 148 31 221 118 39 48 33 56 -16 21 -57 -40
-109 -51 -172 -39 -123 25 -188 113 -186 253 1 74 12 116 42 158 25 35 89 68
133 69 62 0 146 -72 146 -126 0 -26 11 -10 30 43 9 27 20 55 24 63 5 12 -11
20 -76 38 -84 22 -138 26 -193 13z m-130 -171 c-46 -174 48 -339 211 -372 74
-15 55 -33 -34 -33 -69 0 -112 18 -170 69 -86 76 -105 242 -41 350 33 56 50
48 34 -14z"/>
<path d="M2434 1062 c-104 -36 -173 -114 -201 -228 -13 -52 -14 -74 -4 -120
31 -156 138 -253 279 -254 70 0 118 19 177 72 32 27 65 75 65 93 0 3 -17 -7
-37 -24 -74 -58 -166 -60 -260 -5 -31 18 -49 39 -72 86 -88 174 20 388 179
353 39 -9 110 -75 110 -103 0 -40 17 -22 38 40 12 34 20 62 19 63 -1 1 -36 11
-77 23 -90 26 -148 27 -216 4z m-99 -148 c-8 -27 -15 -74 -15 -104 0 -148 77
-247 220 -283 52 -14 53 -15 30 -27 -65 -35 -210 19 -262 98 -52 78 -67 199
-35 273 17 37 66 103 73 96 2 -2 -3 -26 -11 -53z"/>
<path d="M732 1049 c46 -42 48 -55 48 -297 l0 -229 -27 -27 c-14 -14 -24 -27
-22 -29 2 -1 97 -1 210 1 l206 3 27 62 c37 87 34 113 -6 62 -49 -63 -156 -97
-236 -76 l-42 12 0 129 c0 72 2 130 5 130 26 0 77 -34 91 -61 l16 -33 24 75
c30 92 31 108 7 87 -23 -20 -78 -38 -114 -38 l-29 0 0 69 c0 85 5 98 41 116
60 31 167 3 191 -50 6 -14 14 -25 18 -25 3 0 18 29 32 65 l25 65 -228 0 c-125
0 -236 3 -246 6 -12 4 -10 -1 9 -17z m147 -56 c-21 -41 -25 -125 -9 -169 7
-18 7 -30 0 -39 -13 -16 -9 -240 4 -267 7 -15 3 -18 -23 -18 -18 0 -34 6 -36
13 -2 6 -6 126 -7 265 l-3 252 46 0 47 0 -19 -37z"/>
<path d="M1230 1067 c0 -3 11 -18 24 -32 32 -35 36 -61 36 -264 0 -191 -8
-241 -46 -276 l-25 -23 85 -4 c47 -2 86 -2 86 0 0 1 -9 11 -20 22 -18 18 -20
33 -20 194 0 178 -6 240 -21 230 -5 -3 -9 5 -9 18 0 13 -3 40 -6 61 l-7 37 47
0 c44 0 47 -2 63 -37 9 -21 25 -56 35 -79 10 -22 18 -43 18 -47 0 -4 18 -46
40 -93 27 -57 47 -88 60 -91 25 -7 25 -19 -1 -78 -27 -61 -34 -54 -92 90 -71
174 -83 199 -102 215 -17 14 -17 13 -10 -10 10 -35 65 -175 118 -300 24 -58
47 -114 51 -125 6 -16 18 6 57 100 28 66 70 168 95 226 24 59 44 114 44 123 0
9 5 16 10 16 14 0 13 -385 -1 -413 -6 -12 -21 -30 -33 -39 -20 -17 -16 -18
104 -17 100 0 122 2 109 12 -36 27 -39 52 -39 292 l0 236 25 25 c14 14 25 26
25 27 0 1 -45 0 -101 -3 l-101 -5 -68 -165 c-38 -91 -71 -174 -75 -185 -5 -20
-24 20 -121 257 l-39 98 -82 0 c-45 0 -88 3 -97 6 -9 3 -16 4 -16 1z m618
-299 c-3 -252 -4 -261 -23 -264 -50 -8 -50 -7 -47 189 3 148 1 190 -12 220 -8
20 -20 37 -25 37 -16 0 -13 32 5 58 12 17 25 22 60 22 l44 0 -2 -262z"/>
<path d="M1990 1062 c0 -2 10 -12 23 -22 22 -18 22 -23 25 -270 3 -216 1 -255
-13 -276 l-15 -24 95 0 c92 0 107 4 84 27 -7 7 -10 100 -9 274 0 210 3 266 15
279 12 13 2 15 -96 15 -60 0 -109 -2 -109 -3z m150 -54 c1 -77 1 -271 1 -374
-1 -130 -7 -143 -52 -129 -18 6 -19 22 -19 266 l0 259 35 0 c30 0 35 -3 35
-22z"/>
</g>
</svg>
