<?xml version="1.0" standalone="no"?>
<!DOCTYPE svg PUBLIC "-//W3C//DTD SVG 20010904//EN"
 "http://www.w3.org/TR/2001/REC-SVG-20010904/DTD/svg10.dtd">
<svg version="1.0" xmlns="http://www.w3.org/2000/svg"
 width="300.000000pt" height="100.000000pt" viewBox="0 0 300.000000 100.000000"
 preserveAspectRatio="xMidYMid meet">
<metadata>
Created by potrace 1.10, written by Peter Selinger 2001-2011
</metadata>
<g transform="translate(0.000000,100.000000) scale(0.100000,-0.100000)"
fill="#000000" stroke="none">
<path d="M1393 993 c295 -2 779 -2 1075 0 295 1 53 2 -538 2 -591 0 -833 -1
-537 -2z"/>
<path d="M153 969 c-48 -24 -83 -61 -115 -123 -33 -62 -37 -212 -9 -299 39
-123 130 -248 244 -339 85 -67 73 -29 -19 62 -93 91 -97 96 -129 145 -51 79
-105 219 -105 274 0 32 21 96 48 146 36 68 141 145 196 145 30 0 85 -23 114
-48 15 -13 22 -30 22 -56 0 -32 -3 -35 -22 -32 -13 3 -23 5 -23 7 0 1 -9 3
-20 4 -11 1 -29 4 -40 6 -82 12 -153 -64 -146 -156 4 -50 26 -65 95 -65 72 -1
96 -15 96 -58 0 -33 -10 -40 -55 -38 -33 2 -75 -28 -75 -53 0 -37 123 -183
187 -222 18 -12 31 -24 28 -29 -3 -4 5 -6 17 -2 14 3 19 2 14 -6 -18 -30 45 4
112 60 60 50 162 175 162 199 0 27 -33 48 -80 51 l-45 3 0 40 0 40 65 6 c104
9 129 33 115 107 -11 61 -34 93 -78 112 -35 16 -51 17 -97 8 -30 -5 -58 -15
-62 -21 -9 -14 -11 -6 -12 43 -1 31 22 68 43 71 3 0 15 3 26 5 68 16 93 15
132 -3 22 -11 47 -25 54 -32 8 -6 24 -19 36 -29 12 -10 23 -25 25 -33 2 -7 10
-20 18 -27 10 -9 10 -11 1 -7 -8 5 -6 -3 5 -21 15 -22 19 -46 18 -109 -1 -159
-63 -279 -222 -432 -95 -91 -106 -123 -22 -62 104 76 195 193 248 321 22 53
26 78 27 163 0 84 -4 108 -23 151 -27 60 -82 117 -133 138 -51 21 -152 18
-216 -6 l-53 -19 0 -90 0 -89 41 27 c46 30 132 43 168 23 29 -15 51 -68 51
-121 l0 -42 -101 7 -102 6 7 -31 c3 -17 6 -53 6 -80 l0 -49 75 0 75 0 -51 -65
c-48 -61 -156 -167 -189 -185 -23 -12 -139 86 -205 173 l-54 72 74 3 75 3 0
81 0 80 -95 -4 -95 -4 0 54 c0 46 4 58 29 83 23 23 38 29 71 29 44 0 104 -21
132 -47 10 -9 19 -14 21 -12 1 2 1 43 -1 91 l-3 86 -49 21 c-67 29 -169 29
-227 0z"/>
<path d="M2435 760 c-16 -17 -25 -30 -21 -30 14 0 66 31 66 40 0 21 -19 17
-45 -10z"/>
<path d="M1923 702 c-3 -9 -21 -53 -39 -97 -39 -92 -39 -95 -19 -95 9 0 18 13
22 31 5 28 9 30 42 27 28 -2 37 -8 39 -24 2 -16 12 -23 33 -26 16 -3 29 -3 29
0 0 2 -16 46 -37 98 -36 92 -58 120 -70 86z m21 -74 c9 -35 8 -38 -14 -38 -11
0 -20 3 -20 8 0 19 13 52 20 52 4 0 10 -10 14 -22z"/>
<path d="M2113 709 c-60 -17 -92 -94 -63 -150 30 -54 160 -69 160 -17 0 18 -2
18 -22 4 -31 -22 -45 -20 -73 9 -29 28 -33 79 -9 113 19 28 78 31 89 5 7 -17
8 -16 15 2 4 11 5 23 1 26 -12 12 -66 16 -98 8z"/>
<path d="M1094 612 l0 -97 25 1 c24 1 25 4 22 48 l-3 48 33 -4 c20 -2 34 2 36
10 3 8 -7 12 -31 12 -34 0 -36 2 -36 31 0 31 1 31 35 26 26 -4 35 -2 35 9 0
10 -14 14 -58 14 l-58 0 0 -98z"/>
<path d="M1234 694 c3 -9 6 -44 6 -78 0 -84 14 -101 79 -101 71 0 83 15 89
114 4 74 3 81 -14 81 -17 0 -19 -7 -16 -64 4 -79 -8 -106 -49 -106 -39 0 -53
35 -45 113 l6 57 -31 0 c-24 0 -30 -3 -25 -16z"/>
<path d="M1450 620 c0 -49 0 -93 0 -97 0 -5 6 -8 13 -8 9 0 11 17 8 63 -1 34
1 62 5 61 5 0 31 -27 58 -59 76 -90 84 -88 88 31 3 92 2 99 -16 99 -17 0 -18
-6 -13 -60 3 -33 1 -60 -3 -60 -4 0 -30 27 -57 60 -26 33 -56 60 -65 60 -16 0
-18 -11 -18 -90z"/>
<path d="M1660 612 l0 -97 61 2 c95 3 137 45 125 123 -8 53 -36 70 -117 70
l-69 0 0 -98z m121 57 c17 -17 20 -29 16 -62 -6 -46 -21 -64 -57 -69 -25 -3
-25 -2 -28 75 -3 77 -3 77 23 77 14 0 35 -10 46 -21z"/>
<path d="M2240 612 l0 -98 26 1 c26 2 26 2 27 98 l2 97 -27 0 -28 0 0 -98z"/>
<path d="M2363 695 c-13 -9 -27 -33 -34 -53 -24 -81 39 -144 128 -127 54 10
83 45 83 100 0 66 -31 95 -102 95 -32 0 -62 -6 -75 -15z m111 -21 c24 -23 21
-99 -4 -124 -55 -55 -119 24 -86 105 12 29 20 35 45 35 16 0 37 -7 45 -16z"/>
<path d="M2570 610 c0 -81 3 -100 15 -100 11 0 15 16 17 68 l3 67 50 -62 c33
-41 57 -62 73 -62 21 -1 22 2 22 94 0 78 -3 95 -15 95 -12 0 -15 -14 -15 -62
l-1 -63 -57 63 c-82 90 -92 86 -92 -38z"/>
<path d="M1094 329 l1 -99 26 0 c26 0 26 2 21 45 l-5 45 37 0 c27 0 36 4 36
16 0 13 -7 15 -35 11 -33 -5 -35 -4 -35 24 0 27 3 29 35 29 24 0 35 5 35 15 0
11 -13 14 -58 14 l-58 -1 0 -99z"/>
<path d="M1270 420 c0 -5 -17 -50 -39 -100 -34 -79 -37 -90 -21 -90 12 0 21
10 25 30 6 26 11 30 40 30 29 0 34 -4 40 -30 6 -25 11 -30 37 -30 25 0 29 3
23 18 -5 9 -22 54 -39 99 -22 60 -36 83 -48 83 -10 0 -18 -4 -18 -10z m30
-102 c0 -5 -11 -8 -24 -8 -24 0 -24 2 -14 31 l11 32 13 -24 c7 -13 13 -27 14
-31z"/>
<path d="M1360 427 c0 -1 16 -40 35 -86 19 -45 35 -89 35 -97 0 -8 8 -14 18
-14 13 0 28 26 59 100 34 85 38 100 23 100 -12 0 -22 -17 -35 -60 -10 -34 -22
-63 -26 -66 -4 -2 -18 25 -30 61 -22 59 -27 65 -51 65 -16 0 -28 -1 -28 -3z"/>
<path d="M1585 383 c-10 -26 -29 -70 -41 -97 -29 -60 -28 -56 -5 -56 13 0 20
9 25 30 8 44 62 44 77 0 9 -24 17 -30 39 -30 l28 0 -38 98 c-22 53 -45 98 -53
100 -9 2 -21 -15 -32 -45z m23 -71 c-28 -5 -31 1 -16 33 l12 28 12 -29 c11
-26 10 -29 -8 -32z"/>
<path d="M1725 330 l0 -100 58 0 c44 0 57 3 57 15 0 11 -11 15 -36 15 l-37 0
5 85 6 85 -27 0 -26 0 0 -100z"/>
<path d="M1905 421 c-50 -21 -73 -84 -50 -138 17 -40 42 -53 99 -53 65 0 106
36 106 95 0 24 -3 51 -6 60 -14 36 -98 56 -149 36z m87 -28 c24 -21 25 -99 1
-125 -39 -44 -93 -9 -93 60 0 72 47 106 92 65z"/>
<path d="M2095 330 l0 -100 26 0 c26 0 26 2 21 46 -6 55 6 53 34 -5 16 -35 23
-41 51 -41 l33 0 -35 49 c-34 47 -35 50 -15 56 11 3 23 18 26 32 10 39 -24 63
-90 63 l-51 0 0 -100z m83 71 c22 -13 11 -56 -15 -59 -20 -3 -23 1 -23 32 0
36 11 44 38 27z"/>
<path d="M2311 416 c-57 -32 -68 -111 -22 -157 25 -25 37 -29 81 -29 44 0 56
4 81 29 65 65 20 171 -73 171 -24 -1 -54 -7 -67 -14z m103 -28 c37 -52 9 -138
-43 -138 -39 0 -56 25 -56 82 0 38 5 53 19 64 29 21 63 17 80 -8z"/>
<path d="M1070 170 c0 -7 328 -10 965 -10 637 0 965 3 965 10 0 7 -328 10
-965 10 -637 0 -965 -3 -965 -10z"/>
<path d="M606 161 c-3 -4 8 -15 24 -24 65 -39 -11 -99 -84 -66 -14 7 -23 16
-19 22 4 6 -3 8 -17 4 -13 -3 -29 -2 -35 3 -7 5 -33 -1 -69 -18 l-58 -26 -36
20 c-39 21 -53 44 -28 44 9 0 16 5 16 10 0 6 7 10 15 10 8 0 15 5 15 10 0 14
-19 12 -78 -9 -29 -10 -52 -22 -50 -27 4 -12 124 -94 138 -94 6 0 37 13 68 29
l58 29 60 -29 c32 -16 64 -29 69 -29 6 0 44 23 85 50 41 27 72 50 68 50 -4 0
-37 11 -73 24 -35 14 -67 21 -69 17z"/>
</g>
</svg>
