<?xml version="1.0" standalone="no"?>
<!DOCTYPE svg PUBLIC "-//W3C//DTD SVG 20010904//EN"
 "http://www.w3.org/TR/2001/REC-SVG-20010904/DTD/svg10.dtd">
<svg version="1.0" xmlns="http://www.w3.org/2000/svg"
 width="300.000000pt" height="75.000000pt" viewBox="0 0 300.000000 75.000000"
 preserveAspectRatio="xMidYMid meet">
<metadata>
Created by potrace 1.10, written by Peter Selinger 2001-2011
</metadata>
<g transform="translate(0.000000,75.000000) scale(0.100000,-0.100000)"
fill="#000000" stroke="none">
<path d="M365 723 c-63 -16 -134 -92 -175 -187 l-22 -48 -15 28 c-21 42 -64
84 -85 84 -42 0 -51 -100 -19 -214 28 -103 24 -101 181 -55 74 22 141 42 148
44 19 7 71 95 87 149 29 97 10 175 -47 195 -17 6 -31 10 -32 10 -1 -1 -10 -4
-21 -6z m69 -64 c33 -55 2 -180 -59 -241 -30 -31 -114 -61 -131 -47 -7 6 -17
2 -28 -10 -23 -25 -86 -33 -86 -11 -1 9 -6 6 -15 -10 -15 -28 -15 -28 -40 55
-19 65 -20 155 -1 155 7 0 30 -16 51 -35 31 -30 36 -40 31 -63 -5 -18 -4 -22
3 -13 5 9 16 11 27 7 15 -6 17 -5 7 5 -15 15 -17 46 -4 51 5 2 22 24 37 49 54
85 103 131 149 141 29 6 39 1 59 -33z"/>
<path d="M2284 415 c-9 -22 9 -37 37 -33 16 2 24 10 24 23 0 26 -52 35 -61 10z"/>
<path d="M1293 413 c-30 -6 -63 -49 -63 -82 0 -36 23 -66 62 -81 102 -40 118
-58 96 -106 -17 -36 -82 -45 -140 -19 -13 5 -18 3 -18 -9 0 -21 39 -36 95 -36
61 0 97 32 99 87 1 51 -19 75 -82 98 -62 23 -84 43 -80 74 4 38 50 57 102 43
30 -8 43 -7 48 1 4 6 1 15 -6 19 -18 10 -87 17 -113 11z"/>
<path d="M720 245 l0 -165 100 0 c89 0 100 2 100 18 0 15 -9 17 -85 13 l-85
-3 0 66 0 66 70 0 c56 0 70 3 70 15 0 12 -14 15 -70 15 l-70 0 0 55 0 55 80 0
c64 0 80 3 80 15 0 12 -17 15 -95 15 l-95 0 0 -165z"/>
<path d="M980 246 c0 -141 2 -166 15 -166 12 0 15 14 15 69 l0 70 33 -6 c45
-7 113 13 132 40 21 30 19 99 -4 128 -17 21 -29 24 -105 28 l-86 3 0 -166z
m164 112 c20 -28 20 -68 2 -93 -10 -13 -30 -20 -75 -23 l-61 -4 0 71 0 71 59
0 c51 0 62 -3 75 -22z"/>
<path d="M1539 381 c-56 -57 -28 -124 66 -159 44 -16 50 -21 50 -47 0 -42 -29
-48 -125 -24 -10 3 -16 -5 -18 -22 -3 -22 2 -29 29 -38 44 -15 95 -14 129 4
36 19 50 43 50 88 0 42 -27 68 -95 95 -35 14 -51 26 -53 41 -5 31 36 47 87 34
45 -12 51 -9 51 23 0 27 -17 34 -87 34 -47 0 -59 -4 -84 -29z"/>
<path d="M2420 408 c-6 -74 -7 -252 -2 -273 10 -35 52 -60 88 -51 35 9 32 44
-3 48 -28 3 -28 4 -31 86 l-3 82 31 0 c25 0 30 4 30 25 0 22 -3 24 -30 19 -29
-6 -30 -5 -30 30 0 32 -3 36 -25 36 -14 0 -25 -1 -25 -2z"/>
<path d="M345 346 l-30 -14 42 5 c56 7 135 -30 186 -86 120 -133 -2 -209 -182
-114 -71 38 -102 40 -51 3 111 -79 278 -93 304 -25 25 67 -41 168 -144 220
-55 28 -81 30 -125 11z"/>
<path d="M1793 341 c-15 -7 -20 -16 -16 -30 4 -17 11 -19 59 -14 51 5 54 5 64
-21 15 -41 12 -112 -6 -130 -28 -28 -84 -15 -84 20 0 21 30 44 56 44 19 0 25
5 22 17 -6 33 -72 29 -108 -7 -24 -24 -26 -77 -5 -107 21 -29 68 -38 105 -20
17 9 32 11 36 6 3 -5 14 -9 25 -9 18 0 19 8 19 104 0 130 -10 147 -91 152 -30
2 -64 0 -76 -5z"/>
<path d="M2017 343 c-4 -3 -7 -62 -7 -130 l0 -123 30 0 30 0 0 95 c0 85 2 95
21 105 30 17 68 4 75 -25 3 -14 4 -59 2 -100 l-3 -75 27 0 28 0 0 105 c0 99
-2 107 -25 130 -28 29 -79 33 -112 10 -19 -13 -22 -13 -27 0 -6 15 -28 20 -39
8z"/>
<path d="M2290 348 c0 -2 -2 -60 -3 -131 l-2 -127 28 0 27 0 0 130 0 130 -25
0 c-14 0 -25 -1 -25 -2z"/>
<path d="M2598 344 c-11 -3 -18 -15 -18 -29 0 -23 2 -24 51 -18 43 5 54 3 65
-12 20 -26 18 -120 -2 -139 -34 -34 -94 -5 -78 38 7 18 47 31 64 21 8 -5 11 1
8 16 -3 26 -26 34 -64 25 -38 -10 -64 -42 -64 -79 0 -68 60 -104 122 -72 21
10 34 12 36 5 2 -5 12 -10 23 -10 17 0 19 8 19 104 0 131 -10 148 -91 152 -30
1 -62 0 -71 -2z"/>
<path d="M2843 338 c-12 -6 -27 -23 -33 -38 -18 -43 4 -80 57 -100 52 -19 68
-34 60 -54 -7 -18 -52 -21 -90 -7 -22 9 -25 7 -30 -15 -5 -29 -2 -31 51 -40
74 -12 122 21 122 84 0 35 -22 57 -76 75 -27 10 -39 20 -39 33 0 16 7 19 53
18 48 -2 52 0 52 21 0 15 -8 25 -22 29 -34 9 -80 6 -105 -6z"/>
<path d="M190 303 c-47 -14 -88 -30 -92 -36 -9 -14 28 -112 61 -161 14 -22 39
-49 54 -60 28 -21 29 -21 43 -2 16 22 20 126 4 110 -5 -5 -10 -24 -12 -43 -3
-37 -20 -50 -43 -31 -22 18 -97 174 -85 178 5 2 41 -17 80 -43 l72 -46 -7 66
c-5 46 -4 69 5 80 7 8 11 15 9 14 -2 -1 -42 -12 -89 -26z m60 -53 c0 -22 -2
-40 -5 -40 -13 0 -62 30 -74 44 -11 13 -10 17 10 25 13 5 34 10 47 10 19 1 22
-4 22 -39z"/>
</g>
</svg>
